D:\school\WTK\thesis\model\3dpredictsim\Results\Batchsim_tmt_linear_v2\Pog_s1_tmt_bCst_d00_k2000_ig24_act_GRF.mot
nRows=25
nColumns=19

name D:\school\WTK\thesis\model\3dpredictsim\Results\Batchsim_tmt_linear_v2\Pog_s1_tmt_bCst_d00_k2000_ig24_act_GRF.mot
datacolumns 19
datarows 25
range 0.5880221837 0.8702728319
endheader
time 	ground_force_vx	ground_force_vy	ground_force_vz	ground_force_px	ground_force_py	ground_force_pz	1_ground_force_vx	1_ground_force_vy	1_ground_force_vz	1_ground_force_px	1_ground_force_py	1_ground_force_pz	ground_torque_x	ground_torque_y	ground_torque_z	1_ground_torque_x	1_ground_torque_y	1_ground_torque_z
        0.5880221837	       48.0761520719	      269.5320328416	        9.5135188827	        0.3888750163	        0.0000000000	        0.0410987966	      -67.2131990369	       51.8325266065	       -8.4918915957	        1.0825725382	        0.0000000000	       -0.0309115549	        0.0000000000	        0.0000000000	        0.0000000000	        0.0000000000	        0.0000000000	        0.0000000000	
        0.5997826274	       31.1437425303	      219.4576208104	       12.6739712535	        0.4018123110	        0.0000000000	        0.0380461172	     -127.9680842609	      111.8768019564	      -17.6621419250	        1.0785960768	        0.0000000000	       -0.0347617630	        0.0000000000	        0.0000000000	        0.0000000000	        0.0000000000	        0.0000000000	        0.0000000000	
        0.6115430711	       34.9203861102	      184.3535648690	       16.7148773620	        0.4023479633	        0.0000000000	        0.0383383697	     -239.7879674355	      315.9164103830	      -28.0822411769	        1.0512380501	        0.0000000000	       -0.0472646060	        0.0000000000	        0.0000000000	        0.0000000000	        0.0000000000	        0.0000000000	        0.0000000000	
        0.6233035148	       32.8732429567	      142.0264564878	       20.9679879192	        0.4028604932	        0.0000000000	        0.0387305453	     -179.7022450422	      538.1935306182	        4.3668904686	        1.0270875549	        0.0000000000	       -0.0562889487	        0.0000000000	        0.0000000000	        0.0000000000	        0.0000000000	        0.0000000000	        0.0000000000	
        0.6350639584	       23.8474710046	       91.3834815707	       18.3101523068	        0.4032985797	        0.0000000000	        0.0388624346	     -188.1079901610	      744.3221531589	       14.0325011431	        1.0173823776	        0.0000000000	       -0.0593971004	        0.0000000000	        0.0000000000	        0.0000000000	        0.0000000000	        0.0000000000	        0.0000000000	
        0.6468244021	        6.3256626401	       33.9291243399	        8.7738877982	        0.4029778802	        0.0000000000	        0.0388068064	     -198.4623074795	      885.8946747248	       21.5640473435	        1.0100885916	        0.0000000000	       -0.0619094140	        0.0000000000	        0.0000000000	        0.0000000000	        0.0000000000	        0.0000000000	        0.0000000000	
        0.6585848458	        0.1831304739	       -0.1898532070	       -0.0218485123	        0.0000000000	        0.0000000000	        0.0000000000	     -191.8380568258	      925.4300333434	       23.3274403128	        1.0057185393	        0.0000000000	       -0.0633954167	        0.0000000000	        0.0000000000	        0.0000000000	        0.0000000000	        0.0000000000	        0.0000000000	
        0.6703452895	        0.0077035348	       -0.0061480650	        0.0001173666	        0.0000000000	        0.0000000000	        0.0000000000	     -171.3229221725	      903.1599621823	       22.1052629555	        1.0022051097	        0.0000000000	       -0.0643500046	        0.0000000000	        0.0000000000	        0.0000000000	        0.0000000000	        0.0000000000	        0.0000000000	
        0.6821057331	        0.1727999262	       -0.1149423629	        0.0067207397	        0.0000000000	        0.0000000000	        0.0000000000	     -148.1269080763	      860.1030192369	       21.1599690227	        0.9998466929	        0.0000000000	       -0.0649293060	        0.0000000000	        0.0000000000	        0.0000000000	        0.0000000000	        0.0000000000	        0.0000000000	
        0.6938661768	       -1.7745768394	        1.0367944752	       -0.0808681523	        0.0000000000	        0.0000000000	        0.0000000000	     -129.1778864383	      808.4124756728	       20.4498506974	        0.9993585353	        0.0000000000	       -0.0652199926	        0.0000000000	        0.0000000000	        0.0000000000	        0.0000000000	        0.0000000000	        0.0000000000	
        0.7056266205	       -2.0645170677	        1.0934508923	       -0.0988115458	        0.0000000000	        0.0000000000	        0.0000000000	     -113.6151329455	      759.3178706179	       19.9049958550	        1.0000344992	        0.0000000000	       -0.0653623849	        0.0000000000	        0.0000000000	        0.0000000000	        0.0000000000	        0.0000000000	        0.0000000000	
        0.7173870642	       -1.7973328253	        0.8833443075	       -0.0852476424	        0.0000000000	        0.0000000000	        0.0000000000	      -99.2055475241	      717.2452677475	       19.3220706526	        1.0013279319	        0.0000000000	       -0.0654388847	        0.0000000000	        0.0000000000	        0.0000000000	        0.0000000000	        0.0000000000	        0.0000000000	
        0.7291475078	       -1.3334081977	        0.6245133341	       -0.0537527660	        0.0000000000	        0.0000000000	        0.0000000000	      -86.0987680617	      686.3448646641	       19.2239451877	        1.0031732674	        0.0000000000	       -0.0654080124	        0.0000000000	        0.0000000000	        0.0000000000	        0.0000000000	        0.0000000000	        0.0000000000	
        0.7409079515	       -1.0181686703	        0.4579244830	       -0.0346312016	        0.0000000000	        0.0000000000	        0.0000000000	      -76.5777516955	      663.3876643270	       19.7354670899	        1.0053747720	        0.0000000000	       -0.0652483812	        0.0000000000	        0.0000000000	        0.0000000000	        0.0000000000	        0.0000000000	        0.0000000000	
        0.7526683952	       -0.8415755063	        0.3666357926	       -0.0238285724	        0.0000000000	        0.0000000000	        0.0000000000	      -68.9880274090	      645.0057042587	       20.6900703227	        1.0077226233	        0.0000000000	       -0.0649948288	        0.0000000000	        0.0000000000	        0.0000000000	        0.0000000000	        0.0000000000	        0.0000000000	
        0.7644288389	       -0.7574418349	        0.3215862250	       -0.0177560072	        0.0000000000	        0.0000000000	        0.0000000000	      -62.4505709044	      628.2360010479	       21.7160450674	        1.0100545395	        0.0000000000	       -0.0646907621	        0.0000000000	        0.0000000000	        0.0000000000	        0.0000000000	        0.0000000000	        0.0000000000	
        0.7761892825	       -0.7479818534	        0.3107508685	       -0.0144186387	        0.0000000000	        0.0000000000	        0.0000000000	      -56.6195668874	      612.5340784495	       22.2944951780	        1.0122206668	        0.0000000000	       -0.0643801396	        0.0000000000	        0.0000000000	        0.0000000000	        0.0000000000	        0.0000000000	        0.0000000000	
        0.7879497262	       -0.8010327564	        0.3266609551	       -0.0125698523	        0.0000000000	        0.0000000000	        0.0000000000	      -51.3043618451	      598.1333914199	       22.5873435384	        1.0141047263	        0.0000000000	       -0.0640787091	        0.0000000000	        0.0000000000	        0.0000000000	        0.0000000000	        0.0000000000	        0.0000000000	
        0.7997101699	       -0.9062612815	        0.3636323802	       -0.0115111913	        0.0000000000	        0.0000000000	        0.0000000000	      -46.2789354840	      585.2368826156	       23.1061074190	        1.0156397261	        0.0000000000	       -0.0637794768	        0.0000000000	        0.0000000000	        0.0000000000	        0.0000000000	        0.0000000000	        0.0000000000	
        0.8114706136	       -1.0517116466	        0.4161510166	       -0.0110273117	        0.0000000000	        0.0000000000	        0.0000000000	      -41.3540698223	      573.2778182065	       23.6490521548	        1.0168719552	        0.0000000000	       -0.0634802753	        0.0000000000	        0.0000000000	        0.0000000000	        0.0000000000	        0.0000000000	        0.0000000000	
        0.8232310572	       -1.2207733134	        0.4773913526	       -0.0111731518	        0.0000000000	        0.0000000000	        0.0000000000	      -36.5406190633	      561.9480087876	       24.2450030508	        1.0178996182	        0.0000000000	       -0.0631699996	        0.0000000000	        0.0000000000	        0.0000000000	        0.0000000000	        0.0000000000	        0.0000000000	
        0.8349915009	       -1.3857452646	        0.5366984494	       -0.0117970712	        0.0000000000	        0.0000000000	        0.0000000000	      -31.7819138742	      551.2874337449	       24.7605494201	        1.0187668961	        0.0000000000	       -0.0628462499	        0.0000000000	        0.0000000000	        0.0000000000	        0.0000000000	        0.0000000000	        0.0000000000	
        0.8467519446	       -1.5188726528	        0.5837523127	       -0.0126982920	        0.0000000000	        0.0000000000	        0.0000000000	      -26.9198293297	      541.3055702423	       25.1517042442	        1.0194789456	        0.0000000000	       -0.0625046452	        0.0000000000	        0.0000000000	        0.0000000000	        0.0000000000	        0.0000000000	        0.0000000000	
        0.8585123883	       -1.6182636752	        0.6180014190	       -0.0136912249	        0.0000000000	        0.0000000000	        0.0000000000	      -21.8655988712	      531.7361806615	       25.2653281360	        1.0200427683	        0.0000000000	       -0.0621406700	        0.0000000000	        0.0000000000	        0.0000000000	        0.0000000000	        0.0000000000	        0.0000000000	
        0.8702728319	       -1.7198788776	        0.6530163447	       -0.0148421537	        0.0000000000	        0.0000000000	        0.0000000000	      -16.5083548507	      523.4308226201	       25.1155821646	        1.0204748314	        0.0000000000	       -0.0617475632	        0.0000000000	        0.0000000000	        0.0000000000	        0.0000000000	        0.0000000000	        0.0000000000	
